<svg xmlns="http://www.w3.org/2000/svg" viewBox="0 0 15.59 16.31"><defs><style>.cls-1{fill:#000000;}</style></defs><title>human_Ресурс 1</title><g id="Слой_2" data-name="Слой 2"><g id="Layer_3" data-name="Layer 3"><path class="cls-1" d="M15.11,12.71a1.82,1.82,0,0,0-1-1.29l-2.81-1.29h0l-1.16-.88h0a.8.8,0,0,0-.19-.38l0,0V7.44a7.55,7.55,0,0,0,.72-1.32,1.7,1.7,0,0,0,.77-1.32c0-.69-.21-.85-.42-.86C11,3.47,11.24,0,7.71,0,3.92,0,4.46,4,4.46,4h0c-.2,0-.42.17-.38.8a1.76,1.76,0,0,0,.76,1.32,9.32,9.32,0,0,0,.72,1.32V8.89a.78.78,0,0,0-.19.36l-1.16.87v.05L1.5,11.42a1.81,1.81,0,0,0-1,1.29L0,15.15s.46,1.16,7.8,1.16,7.79-1.16,7.79-1.16Z"/></g></g></svg>