<?xml version="1.0" encoding="UTF-8" standalone="no"?>
<!-- Created with Inkscape (http://www.inkscape.org/) -->

<svg
   xmlns:dc="http://purl.org/dc/elements/1.1/"
   xmlns:cc="http://creativecommons.org/ns#"
   xmlns:rdf="http://www.w3.org/1999/02/22-rdf-syntax-ns#"
   xmlns:svg="http://www.w3.org/2000/svg"
   xmlns="http://www.w3.org/2000/svg"
   xmlns:sodipodi="http://sodipodi.sourceforge.net/DTD/sodipodi-0.dtd"
   xmlns:inkscape="http://www.inkscape.org/namespaces/inkscape"
   width="10.079205mm"
   height="12.329124mm"
   viewBox="-0.3 0 10.079204 12.329124"
   version="1.1"
   id="svg4022"
   inkscape:version="0.92.4 (33fec40, 2019-01-16)"
   sodipodi:docname="loyalty.svg">
  <defs
     id="defs4016">
    <clipPath
       clipPathUnits="userSpaceOnUse"
       id="clipPath2582">
      <path
         d="m 155.983,607.956 h 32.403 v -32.404 h -32.403 z"
         id="path2580"
         inkscape:connector-curvature="0" />
    </clipPath>
    <clipPath
       clipPathUnits="userSpaceOnUse"
       id="clipPath2618">
      <path
         d="m 473.452,610.624 h 28.571 v -34.949 h -28.571 z"
         id="path2616"
         inkscape:connector-curvature="0" />
    </clipPath>
  </defs>
  <sodipodi:namedview
     id="base"
     pagecolor="#ffffff"
     bordercolor="#000000"
     borderopacity="1.0"
     inkscape:pageopacity="0.0"
     inkscape:pageshadow="2"
     inkscape:zoom="0.7"
     inkscape:cx="-244.22711"
     inkscape:cy="41.885019"
     inkscape:document-units="mm"
     inkscape:current-layer="layer1"
     showgrid="false"
     viewbox-x="-0.3"
     fit-margin-top="0"
     fit-margin-left="0"
     fit-margin-right="0"
     fit-margin-bottom="0"
     inkscape:window-width="1920"
     inkscape:window-height="1051"
     inkscape:window-x="1920"
     inkscape:window-y="0"
     inkscape:window-maximized="1" />
  <metadata
     id="metadata4019">
    <rdf:RDF>
      <cc:Work
         rdf:about="">
        <dc:format>image/svg+xml</dc:format>
        <dc:type
           rdf:resource="http://purl.org/dc/dcmitype/StillImage" />
        <dc:title></dc:title>
      </cc:Work>
    </rdf:RDF>
  </metadata>
  <g
     inkscape:label="Layer 1"
     inkscape:groupmode="layer"
     id="layer1"
     transform="translate(-125.61635,-132.50946)">
    <g
       transform="matrix(0.35277777,0,0,-0.35277777,-41.706995,347.92403)"
       id="g2612">
      <g
         id="g2614" />
      <g
         id="g2630">
        <g
           clip-path="url(#clipPath2618)"
           id="g2628"
           style="opacity:1">
          <g
             transform="translate(475.4107,610.6243)"
             id="g2622">
            <path
               d="m 0,0 c -1.082,0 -1.959,-0.877 -1.959,-1.959 0,-0.277 0.059,-0.54 0.163,-0.778 0.179,-0.408 0.463,-1.249 0.463,-1.985 v -28.891 c 0,-0.736 0.596,-1.336 1.333,-1.336 0.736,0 1.336,0.6 1.336,1.336 v 28.891 c 0,0.736 0.283,1.577 0.459,1.985 0.105,0.238 0.163,0.501 0.163,0.778 C 1.961,-0.88 1.082,0 0,0"
               style="fill:#000000;fill-opacity:1;fill-rule:nonzero;stroke:none"
               id="path2620"
               inkscape:connector-curvature="0" />
          </g>
          <g
             transform="translate(497.1518,596.9736)"
             id="g2626">
            <path
               d="M 0,0 C -0.27,-0.368 -0.267,-0.863 0.008,-1.198 1.473,-2.974 2.981,-4.431 4.405,-5.593 5.66,-6.618 4.024,-7.365 3.657,-7.521 c -7.47,-3.191 -14.934,3.485 -22.399,1.452 V 9.691 C -11.265,11.725 -3.789,5.02 3.688,8.252 4.053,8.408 4.386,8.37 4.547,8.124 4.707,7.88 4.667,7.46 4.444,7.049 2.963,4.333 1.481,2.031 0,0"
               style="fill:#000000;fill-opacity:1;fill-rule:nonzero;stroke:none"
               id="path2624"
               inkscape:connector-curvature="0" />
          </g>
        </g>
      </g>
    </g>
  </g>
</svg>
